<svg width="32" height="32" viewBox="0 0 32 32" fill="none" xmlns="http://www.w3.org/2000/svg">
<g clip-path="url(#clip0)">
<path d="M0 12.8C0 8.31958 0 6.07937 0.871948 4.36808C1.63893 2.86278 2.86278 1.63893 4.36808 0.871948C6.07937 0 8.31958 0 12.8 0H19.2C23.6804 0 25.9206 0 27.6319 0.871948C29.1372 1.63893 30.3611 2.86278 31.1281 4.36808C32 6.07937 32 8.31958 32 12.8V32H0V12.8Z" fill="white"/>
<path d="M0 0H32V32H0V0Z" fill="#C4C4C4"/>
<path d="M0 0H32V32H0V0Z" fill="url(#paint0_linear)"/>
<path d="M2 11.6C2 8.23968 2 6.55953 2.65396 5.27606C3.2292 4.14708 4.14708 3.2292 5.27606 2.65396C6.55953 2 8.23969 2 11.6 2H20.4C23.7603 2 25.4405 2 26.7239 2.65396C27.8529 3.2292 28.7708 4.14708 29.346 5.27606C30 6.55953 30 8.23969 30 11.6V32H2V11.6Z" fill="#592340"/>
<path d="M4 10.4C4 8.15979 4 7.03968 4.43597 6.18404C4.81947 5.43139 5.43139 4.81947 6.18404 4.43597C7.03968 4 8.15979 4 10.4 4H21.6C23.8402 4 24.9603 4 25.816 4.43597C26.5686 4.81947 27.1805 5.43139 27.564 6.18404C28 7.03968 28 8.15979 28 10.4V32H4V10.4Z" fill="#FE95C7"/>
<path d="M4 16.8C4 15.1198 4 14.2798 4.32698 13.638C4.6146 13.0735 5.07354 12.6146 5.63803 12.327C6.27976 12 7.11984 12 8.8 12H23.2C24.8802 12 25.7202 12 26.362 12.327C26.9265 12.6146 27.3854 13.0735 27.673 13.638C28 14.2798 28 15.1198 28 16.8V32H4V16.8Z" fill="white"/>
<rect x="6" y="28" width="14" height="2" rx="1" fill="#592340"/>
<rect x="6" y="24" width="18" height="2" rx="1" fill="#592340"/>
<rect x="6" y="20" width="16" height="2" rx="1" fill="#592340"/>
<rect x="6" y="16" width="12" height="2" rx="1" fill="#592340"/>
<rect x="13" y="13" width="6" height="1" rx="0.5" fill="#DBDBDB"/>
</g>
<defs>
<linearGradient id="paint0_linear" x1="17.9875" y1="-2.64727" x2="23.4305" y2="32.0636" gradientUnits="userSpaceOnUse">
<stop stop-color="#F1C7A7"/>
<stop offset="1" stop-color="#FF8FCB"/>
</linearGradient>
<clipPath id="clip0">
<path d="M0 12.8C0 8.31958 0 6.07937 0.871948 4.36808C1.63893 2.86278 2.86278 1.63893 4.36808 0.871948C6.07937 0 8.31958 0 12.8 0H19.2C23.6804 0 25.9206 0 27.6319 0.871948C29.1372 1.63893 30.3611 2.86278 31.1281 4.36808C32 6.07937 32 8.31958 32 12.8V32H0V12.8Z" fill="white"/>
</clipPath>
</defs>
</svg>
