<svg xmlns="http://www.w3.org/2000/svg" width="32" height="32" fill="none" viewBox="0 0 32 32"><path fill="#fff" d="M0 12.8C0 8.31958 0 6.07937 0.871948 4.36808C1.63893 2.86278 2.86278 1.63893 4.36808 0.871948C6.07937 0 8.31958 0 12.8 0H19.2C23.6804 0 25.9206 0 27.6319 0.871948C29.1372 1.63893 30.3611 2.86278 31.1281 4.36808C32 6.07937 32 8.31958 32 12.8V25.6C32 27.8402 32 28.9603 31.564 29.816C31.1805 30.5686 30.5686 31.1805 29.816 31.564C28.9603 32 27.8402 32 25.6 32H6.4C4.15979 32 3.03968 32 2.18404 31.564C1.43139 31.1805 0.819467 30.5686 0.435974 29.816C0 28.9603 0 27.8402 0 25.6V12.8Z"/><mask id="mask0" width="28" height="28" x="2" y="2" mask-type="alpha" maskUnits="userSpaceOnUse"><path fill="#fff" d="M2 11.66C2 8.24306 2 6.53458 2.67552 5.23415C3.24477 4.13829 4.13829 3.24477 5.23415 2.67552C6.53458 2 8.24306 2 11.66 2H20.34C23.7569 2 25.4654 2 26.7658 2.67552C27.8617 3.24477 28.7552 4.13829 29.3245 5.23415C30 6.53458 30 8.24306 30 11.66V26.78C30 27.919 30 28.4885 29.7748 28.9219C29.5851 29.2872 29.2872 29.5851 28.9219 29.7748C28.4885 30 27.919 30 26.78 30H5.22C4.08102 30 3.51153 30 3.07805 29.7748C2.71276 29.5851 2.41492 29.2872 2.22517 28.9219C2 28.4885 2 27.919 2 26.78V11.66Z"/></mask><g mask="url(#mask0)"><path fill="#592340" d="M2 11.6C2 8.23968 2 6.55953 2.65396 5.27606C3.2292 4.14708 4.14708 3.2292 5.27606 2.65396C6.55953 2 8.23969 2 11.6 2H20.4C23.7603 2 25.4405 2 26.7239 2.65396C27.8529 3.2292 28.7708 4.14708 29.346 5.27606C30 6.55953 30 8.23969 30 11.6V32H2V11.6Z"/><path fill="#FE95C7" d="M4 10.4C4 8.15979 4 7.03968 4.43597 6.18404C4.81947 5.43139 5.43139 4.81947 6.18404 4.43597C7.03968 4 8.15979 4 10.4 4H21.6C23.8402 4 24.9603 4 25.816 4.43597C26.5686 4.81947 27.1805 5.43139 27.564 6.18404C28 7.03968 28 8.15979 28 10.4V32H4V10.4Z"/><path fill="#fff" d="M4 16.8C4 15.1198 4 14.2798 4.32698 13.638C4.6146 13.0735 5.07354 12.6146 5.63803 12.327C6.27976 12 7.11984 12 8.8 12H23.2C24.8802 12 25.7202 12 26.362 12.327C26.9265 12.6146 27.3854 13.0735 27.673 13.638C28 14.2798 28 15.1198 28 16.8V32H4V16.8Z"/><rect width="14" height="2" x="6" y="28" fill="#592340" rx="1"/><rect width="18" height="2" x="6" y="24" fill="#592340" rx="1"/><rect width="16" height="2" x="6" y="20" fill="#592340" rx="1"/><rect width="12" height="2" x="6" y="16" fill="#592340" rx="1"/><rect width="6" height="1" x="13" y="13" fill="#DBDBDB" rx=".5"/></g></svg>