<svg xmlns="http://www.w3.org/2000/svg" width="975" height="336" fill="none" viewBox="0 0 975 336"><g clip-path="url(#clip0)"><rect width="1280" height="550" fill="#fff" transform="translate(-152)"/><path fill="#C4C4C4" d="M-152 0H1128V336H-152V0Z"/><path fill="url(#paint0_linear)" d="M-152 0H1128V336H-152V0Z"/><path fill="#592340" d="M412.408 172.2H402.008L400.024 177H394.712L404.696 154.6H409.816L419.832 177H414.392L412.408 172.2ZM410.776 168.264L407.224 159.688L403.672 168.264H410.776ZM429.968 177.256C428.133 177.256 426.48 176.883 425.008 176.136C423.557 175.368 422.416 174.312 421.584 172.968C420.773 171.624 420.368 170.099 420.368 168.392C420.368 166.685 420.773 165.16 421.584 163.816C422.416 162.472 423.557 161.427 425.008 160.68C426.48 159.912 428.133 159.528 429.968 159.528C431.781 159.528 433.36 159.912 434.704 160.68C436.069 161.427 437.061 162.504 437.68 163.912L433.808 165.992C432.912 164.413 431.621 163.624 429.936 163.624C428.634 163.624 427.557 164.051 426.704 164.904C425.85 165.757 425.424 166.92 425.424 168.392C425.424 169.864 425.85 171.027 426.704 171.88C427.557 172.733 428.634 173.16 429.936 173.16C431.642 173.16 432.933 172.371 433.808 170.792L437.68 172.904C437.061 174.269 436.069 175.336 434.704 176.104C433.36 176.872 431.781 177.256 429.968 177.256ZM448.655 177.256C446.821 177.256 445.167 176.883 443.695 176.136C442.245 175.368 441.103 174.312 440.271 172.968C439.461 171.624 439.055 170.099 439.055 168.392C439.055 166.685 439.461 165.16 440.271 163.816C441.103 162.472 442.245 161.427 443.695 160.68C445.167 159.912 446.821 159.528 448.655 159.528C450.469 159.528 452.047 159.912 453.391 160.68C454.757 161.427 455.749 162.504 456.367 163.912L452.495 165.992C451.599 164.413 450.309 163.624 448.623 163.624C447.322 163.624 446.245 164.051 445.391 164.904C444.538 165.757 444.111 166.92 444.111 168.392C444.111 169.864 444.538 171.027 445.391 171.88C446.245 172.733 447.322 173.16 448.623 173.16C450.33 173.16 451.621 172.371 452.495 170.792L456.367 172.904C455.749 174.269 454.757 175.336 453.391 176.104C452.047 176.872 450.469 177.256 448.655 177.256ZM475.887 168.456C475.887 168.52 475.855 168.968 475.791 169.8H462.767C463.001 170.867 463.556 171.709 464.431 172.328C465.305 172.947 466.393 173.256 467.695 173.256C468.591 173.256 469.38 173.128 470.063 172.872C470.767 172.595 471.417 172.168 472.015 171.592L474.671 174.472C473.049 176.328 470.681 177.256 467.567 177.256C465.625 177.256 463.908 176.883 462.415 176.136C460.921 175.368 459.769 174.312 458.959 172.968C458.148 171.624 457.743 170.099 457.743 168.392C457.743 166.707 458.137 165.192 458.927 163.848C459.737 162.483 460.836 161.427 462.223 160.68C463.631 159.912 465.199 159.528 466.927 159.528C468.612 159.528 470.137 159.891 471.503 160.616C472.868 161.341 473.935 162.387 474.703 163.752C475.492 165.096 475.887 166.664 475.887 168.456ZM466.959 163.304C465.828 163.304 464.879 163.624 464.111 164.264C463.343 164.904 462.873 165.779 462.703 166.888H471.183C471.012 165.8 470.543 164.936 469.775 164.296C469.007 163.635 468.068 163.304 466.959 163.304ZM485.002 177.256C483.573 177.256 482.176 177.085 480.81 176.744C479.445 176.381 478.357 175.933 477.546 175.4L479.21 171.816C479.978 172.307 480.906 172.712 481.994 173.032C483.082 173.331 484.149 173.48 485.194 173.48C487.306 173.48 488.362 172.957 488.362 171.912C488.362 171.421 488.074 171.069 487.498 170.856C486.922 170.643 486.037 170.461 484.842 170.312C483.434 170.099 482.272 169.853 481.354 169.576C480.437 169.299 479.637 168.808 478.954 168.104C478.293 167.4 477.962 166.397 477.962 165.096C477.962 164.008 478.272 163.048 478.89 162.216C479.53 161.363 480.448 160.701 481.642 160.232C482.858 159.763 484.288 159.528 485.93 159.528C487.146 159.528 488.352 159.667 489.546 159.944C490.762 160.2 491.765 160.563 492.554 161.032L490.89 164.584C489.376 163.731 487.722 163.304 485.93 163.304C484.864 163.304 484.064 163.453 483.53 163.752C482.997 164.051 482.73 164.435 482.73 164.904C482.73 165.437 483.018 165.811 483.594 166.024C484.17 166.237 485.088 166.44 486.346 166.632C487.754 166.867 488.906 167.123 489.802 167.4C490.698 167.656 491.477 168.136 492.138 168.84C492.8 169.544 493.13 170.525 493.13 171.784C493.13 172.851 492.81 173.8 492.17 174.632C491.53 175.464 490.592 176.115 489.354 176.584C488.138 177.032 486.688 177.256 485.002 177.256ZM502.002 177.256C500.573 177.256 499.176 177.085 497.81 176.744C496.445 176.381 495.357 175.933 494.546 175.4L496.21 171.816C496.978 172.307 497.906 172.712 498.994 173.032C500.082 173.331 501.149 173.48 502.194 173.48C504.306 173.48 505.362 172.957 505.362 171.912C505.362 171.421 505.074 171.069 504.498 170.856C503.922 170.643 503.037 170.461 501.842 170.312C500.434 170.099 499.272 169.853 498.354 169.576C497.437 169.299 496.637 168.808 495.954 168.104C495.293 167.4 494.962 166.397 494.962 165.096C494.962 164.008 495.272 163.048 495.89 162.216C496.53 161.363 497.448 160.701 498.642 160.232C499.858 159.763 501.288 159.528 502.93 159.528C504.146 159.528 505.352 159.667 506.546 159.944C507.762 160.2 508.765 160.563 509.554 161.032L507.89 164.584C506.376 163.731 504.722 163.304 502.93 163.304C501.864 163.304 501.064 163.453 500.53 163.752C499.997 164.051 499.73 164.435 499.73 164.904C499.73 165.437 500.018 165.811 500.594 166.024C501.17 166.237 502.088 166.44 503.346 166.632C504.754 166.867 505.906 167.123 506.802 167.4C507.698 167.656 508.477 168.136 509.138 168.84C509.8 169.544 510.13 170.525 510.13 171.784C510.13 172.851 509.81 173.8 509.17 174.632C508.53 175.464 507.592 176.115 506.354 176.584C505.138 177.032 503.688 177.256 502.002 177.256ZM513.21 159.784H518.202V177H513.21V159.784ZM515.706 157.384C514.789 157.384 514.042 157.117 513.466 156.584C512.89 156.051 512.602 155.389 512.602 154.6C512.602 153.811 512.89 153.149 513.466 152.616C514.042 152.083 514.789 151.816 515.706 151.816C516.624 151.816 517.37 152.072 517.946 152.584C518.522 153.096 518.81 153.736 518.81 154.504C518.81 155.336 518.522 156.029 517.946 156.584C517.37 157.117 516.624 157.384 515.706 157.384ZM533.011 159.528C534.611 159.528 536.062 159.901 537.363 160.648C538.686 161.373 539.721 162.408 540.467 163.752C541.214 165.075 541.587 166.621 541.587 168.392C541.587 170.163 541.214 171.72 540.467 173.064C539.721 174.387 538.686 175.421 537.363 176.168C536.062 176.893 534.611 177.256 533.011 177.256C530.643 177.256 528.841 176.509 527.603 175.016V177H522.835V153.256H527.827V161.608C529.086 160.221 530.814 159.528 533.011 159.528ZM532.147 173.16C533.427 173.16 534.473 172.733 535.283 171.88C536.115 171.005 536.531 169.843 536.531 168.392C536.531 166.941 536.115 165.789 535.283 164.936C534.473 164.061 533.427 163.624 532.147 163.624C530.867 163.624 529.811 164.061 528.979 164.936C528.169 165.789 527.763 166.941 527.763 168.392C527.763 169.843 528.169 171.005 528.979 171.88C529.811 172.733 530.867 173.16 532.147 173.16ZM544.929 153.256H549.921V177H544.929V153.256ZM571.418 168.456C571.418 168.52 571.386 168.968 571.322 169.8H558.298C558.533 170.867 559.087 171.709 559.962 172.328C560.837 172.947 561.925 173.256 563.226 173.256C564.122 173.256 564.911 173.128 565.594 172.872C566.298 172.595 566.949 172.168 567.546 171.592L570.202 174.472C568.581 176.328 566.213 177.256 563.098 177.256C561.157 177.256 559.439 176.883 557.946 176.136C556.453 175.368 555.301 174.312 554.49 172.968C553.679 171.624 553.274 170.099 553.274 168.392C553.274 166.707 553.669 165.192 554.458 163.848C555.269 162.483 556.367 161.427 557.754 160.68C559.162 159.912 560.73 159.528 562.458 159.528C564.143 159.528 565.669 159.891 567.034 160.616C568.399 161.341 569.466 162.387 570.234 163.752C571.023 165.096 571.418 166.664 571.418 168.456ZM562.49 163.304C561.359 163.304 560.41 163.624 559.642 164.264C558.874 164.904 558.405 165.779 558.234 166.888H566.714C566.543 165.8 566.074 164.936 565.306 164.296C564.538 163.635 563.599 163.304 562.49 163.304ZM576.661 171.048C577.558 171.048 578.294 171.336 578.87 171.912C579.446 172.467 579.734 173.203 579.734 174.12C579.734 174.547 579.68 174.973 579.574 175.4C579.467 175.827 579.232 176.467 578.87 177.32L577.046 181.928H573.878L575.286 176.84C574.752 176.627 574.326 176.285 574.006 175.816C573.707 175.325 573.558 174.76 573.558 174.12C573.558 173.203 573.846 172.467 574.422 171.912C575.019 171.336 575.766 171.048 576.661 171.048ZM592.531 154.6H602.707C605.139 154.6 607.283 155.069 609.139 156.008C611.016 156.925 612.467 158.227 613.491 159.912C614.536 161.597 615.059 163.56 615.059 165.8C615.059 168.04 614.536 170.003 613.491 171.688C612.467 173.373 611.016 174.685 609.139 175.624C607.283 176.541 605.139 177 602.707 177H592.531V154.6ZM602.451 172.744C604.691 172.744 606.472 172.125 607.795 170.888C609.139 169.629 609.811 167.933 609.811 165.8C609.811 163.667 609.139 161.981 607.795 160.744C606.472 159.485 604.691 158.856 602.451 158.856H597.715V172.744H602.451ZM635.481 168.456C635.481 168.52 635.449 168.968 635.385 169.8H622.361C622.595 170.867 623.15 171.709 624.025 172.328C624.899 172.947 625.987 173.256 627.289 173.256C628.185 173.256 628.974 173.128 629.657 172.872C630.361 172.595 631.011 172.168 631.609 171.592L634.265 174.472C632.643 176.328 630.275 177.256 627.161 177.256C625.219 177.256 623.502 176.883 622.009 176.136C620.515 175.368 619.363 174.312 618.553 172.968C617.742 171.624 617.337 170.099 617.337 168.392C617.337 166.707 617.731 165.192 618.521 163.848C619.331 162.483 620.43 161.427 621.817 160.68C623.225 159.912 624.793 159.528 626.521 159.528C628.206 159.528 629.731 159.891 631.097 160.616C632.462 161.341 633.529 162.387 634.297 163.752C635.086 165.096 635.481 166.664 635.481 168.456ZM626.553 163.304C625.422 163.304 624.473 163.624 623.705 164.264C622.937 164.904 622.467 165.779 622.297 166.888H630.777C630.606 165.8 630.137 164.936 629.369 164.296C628.601 163.635 627.662 163.304 626.553 163.304ZM638.804 153.256H643.796V177H638.804V153.256ZM648.429 159.784H653.421V177H648.429V159.784ZM650.925 157.384C650.008 157.384 649.261 157.117 648.685 156.584C648.109 156.051 647.821 155.389 647.821 154.6C647.821 153.811 648.109 153.149 648.685 152.616C649.261 152.083 650.008 151.816 650.925 151.816C651.842 151.816 652.589 152.072 653.165 152.584C653.741 153.096 654.029 153.736 654.029 154.504C654.029 155.336 653.741 156.029 653.165 156.584C652.589 157.117 651.842 157.384 650.925 157.384ZM675.814 159.784V174.12C675.814 177.277 674.993 179.624 673.35 181.16C671.707 182.696 669.307 183.464 666.15 183.464C664.486 183.464 662.907 183.261 661.414 182.856C659.921 182.451 658.683 181.864 657.702 181.096L659.686 177.512C660.411 178.109 661.329 178.579 662.438 178.92C663.547 179.283 664.657 179.464 665.766 179.464C667.494 179.464 668.763 179.069 669.574 178.28C670.406 177.512 670.822 176.339 670.822 174.76V174.024C669.521 175.453 667.707 176.168 665.382 176.168C663.803 176.168 662.353 175.827 661.03 175.144C659.729 174.44 658.694 173.459 657.926 172.2C657.158 170.941 656.774 169.491 656.774 167.848C656.774 166.205 657.158 164.755 657.926 163.496C658.694 162.237 659.729 161.267 661.03 160.584C662.353 159.88 663.803 159.528 665.382 159.528C667.878 159.528 669.777 160.349 671.078 161.992V159.784H675.814ZM666.374 172.072C667.697 172.072 668.774 171.688 669.606 170.92C670.459 170.131 670.886 169.107 670.886 167.848C670.886 166.589 670.459 165.576 669.606 164.808C668.774 164.019 667.697 163.624 666.374 163.624C665.051 163.624 663.963 164.019 663.11 164.808C662.257 165.576 661.83 166.589 661.83 167.848C661.83 169.107 662.257 170.131 663.11 170.92C663.963 171.688 665.051 172.072 666.374 172.072ZM690.924 159.528C693.058 159.528 694.775 160.168 696.076 161.448C697.399 162.728 698.06 164.627 698.06 167.144V177H693.068V167.912C693.068 166.547 692.77 165.533 692.172 164.872C691.575 164.189 690.711 163.848 689.58 163.848C688.322 163.848 687.319 164.243 686.572 165.032C685.826 165.8 685.452 166.952 685.452 168.488V177H680.46V153.256H685.452V161.576C686.114 160.915 686.914 160.413 687.852 160.072C688.791 159.709 689.815 159.528 690.924 159.528ZM713.689 176.168C713.199 176.531 712.591 176.808 711.865 177C711.161 177.171 710.415 177.256 709.625 177.256C707.577 177.256 705.988 176.733 704.857 175.688C703.748 174.643 703.193 173.107 703.193 171.08V164.008H700.537V160.168H703.193V155.976H708.185V160.168H712.473V164.008H708.185V171.016C708.185 171.741 708.367 172.307 708.729 172.712C709.113 173.096 709.647 173.288 710.329 173.288C711.119 173.288 711.791 173.075 712.345 172.648L713.689 176.168ZM721.964 160.168H726.38V164.008H722.092V177H717.1V164.008H714.444V160.168H717.1V159.4C717.1 157.437 717.676 155.88 718.828 154.728C720.001 153.576 721.644 153 723.756 153C724.502 153 725.206 153.085 725.868 153.256C726.55 153.405 727.116 153.629 727.564 153.928L726.252 157.544C725.676 157.139 725.004 156.936 724.236 156.936C722.721 156.936 721.964 157.768 721.964 159.432V160.168ZM746.211 159.784V177H741.475V174.952C740.813 175.699 740.024 176.275 739.107 176.68C738.189 177.064 737.197 177.256 736.131 177.256C733.869 177.256 732.077 176.605 730.755 175.304C729.432 174.003 728.771 172.072 728.771 169.512V159.784H733.763V168.776C733.763 171.549 734.925 172.936 737.251 172.936C738.445 172.936 739.405 172.552 740.131 171.784C740.856 170.995 741.219 169.832 741.219 168.296V159.784H746.211ZM750.835 153.256H755.827V177H750.835V153.256ZM762.38 171.048C763.276 171.048 764.012 171.336 764.588 171.912C765.164 172.467 765.452 173.203 765.452 174.12C765.452 174.547 765.399 174.973 765.292 175.4C765.186 175.827 764.951 176.467 764.588 177.32L762.764 181.928H759.596L761.004 176.84C760.471 176.627 760.044 176.285 759.724 175.816C759.426 175.325 759.276 174.76 759.276 174.12C759.276 173.203 759.564 172.467 760.14 171.912C760.738 171.336 761.484 171.048 762.38 171.048ZM404.248 205.528C406.915 205.528 408.963 206.168 410.392 207.448C411.821 208.707 412.536 210.616 412.536 213.176V223H407.864V220.856C406.925 222.456 405.176 223.256 402.616 223.256C401.293 223.256 400.141 223.032 399.16 222.584C398.2 222.136 397.464 221.517 396.952 220.728C396.44 219.939 396.184 219.043 396.184 218.04C396.184 216.44 396.781 215.181 397.976 214.264C399.192 213.347 401.059 212.888 403.576 212.888H407.544C407.544 211.8 407.213 210.968 406.552 210.392C405.891 209.795 404.899 209.496 403.576 209.496C402.659 209.496 401.752 209.645 400.856 209.944C399.981 210.221 399.235 210.605 398.616 211.096L396.824 207.608C397.763 206.947 398.883 206.435 400.184 206.072C401.507 205.709 402.861 205.528 404.248 205.528ZM403.864 219.896C404.717 219.896 405.475 219.704 406.136 219.32C406.797 218.915 407.267 218.328 407.544 217.56V215.8H404.12C402.072 215.8 401.048 216.472 401.048 217.816C401.048 218.456 401.293 218.968 401.784 219.352C402.296 219.715 402.989 219.896 403.864 219.896ZM427.518 205.528C429.651 205.528 431.369 206.168 432.67 207.448C433.993 208.728 434.654 210.627 434.654 213.144V223H429.662V213.912C429.662 212.547 429.363 211.533 428.766 210.872C428.169 210.189 427.305 209.848 426.174 209.848C424.915 209.848 423.913 210.243 423.166 211.032C422.419 211.8 422.046 212.952 422.046 214.488V223H417.054V205.784H421.822V207.8C422.483 207.075 423.305 206.52 424.286 206.136C425.267 205.731 426.345 205.528 427.518 205.528ZM456.903 199.256V223H452.135V221.016C450.897 222.509 449.105 223.256 446.759 223.256C445.137 223.256 443.665 222.893 442.343 222.168C441.041 221.443 440.017 220.408 439.271 219.064C438.524 217.72 438.151 216.163 438.151 214.392C438.151 212.621 438.524 211.064 439.271 209.72C440.017 208.376 441.041 207.341 442.343 206.616C443.665 205.891 445.137 205.528 446.759 205.528C448.956 205.528 450.673 206.221 451.911 207.608V199.256H456.903ZM447.623 219.16C448.881 219.16 449.927 218.733 450.759 217.88C451.591 217.005 452.007 215.843 452.007 214.392C452.007 212.941 451.591 211.789 450.759 210.936C449.927 210.061 448.881 209.624 447.623 209.624C446.343 209.624 445.287 210.061 444.455 210.936C443.623 211.789 443.207 212.941 443.207 214.392C443.207 215.843 443.623 217.005 444.455 217.88C445.287 218.733 446.343 219.16 447.623 219.16ZM480.633 200.6C482.617 200.6 484.335 200.931 485.785 201.592C487.257 202.253 488.388 203.192 489.177 204.408C489.967 205.624 490.361 207.064 490.361 208.728C490.361 210.371 489.967 211.811 489.177 213.048C488.388 214.264 487.257 215.203 485.785 215.864C484.335 216.504 482.617 216.824 480.633 216.824H476.121V223H470.937V200.6H480.633ZM480.345 212.6C481.903 212.6 483.087 212.269 483.897 211.608C484.708 210.925 485.113 209.965 485.113 208.728C485.113 207.469 484.708 206.509 483.897 205.848C483.087 205.165 481.903 204.824 480.345 204.824H476.121V212.6H480.345ZM510.543 214.456C510.543 214.52 510.511 214.968 510.447 215.8H497.423C497.658 216.867 498.212 217.709 499.087 218.328C499.962 218.947 501.05 219.256 502.351 219.256C503.247 219.256 504.036 219.128 504.719 218.872C505.423 218.595 506.074 218.168 506.671 217.592L509.327 220.472C507.706 222.328 505.338 223.256 502.223 223.256C500.282 223.256 498.564 222.883 497.071 222.136C495.578 221.368 494.426 220.312 493.615 218.968C492.804 217.624 492.399 216.099 492.399 214.392C492.399 212.707 492.794 211.192 493.583 209.848C494.394 208.483 495.492 207.427 496.879 206.68C498.287 205.912 499.855 205.528 501.583 205.528C503.268 205.528 504.794 205.891 506.159 206.616C507.524 207.341 508.591 208.387 509.359 209.752C510.148 211.096 510.543 212.664 510.543 214.456ZM501.615 209.304C500.484 209.304 499.535 209.624 498.767 210.264C497.999 210.904 497.53 211.779 497.359 212.888H505.839C505.668 211.8 505.199 210.936 504.431 210.296C503.663 209.635 502.724 209.304 501.615 209.304ZM518.635 208.056C519.232 207.224 520.032 206.595 521.035 206.168C522.059 205.741 523.232 205.528 524.555 205.528V210.136C524 210.093 523.627 210.072 523.435 210.072C522.005 210.072 520.885 210.477 520.075 211.288C519.264 212.077 518.859 213.272 518.859 214.872V223H513.867V205.784H518.635V208.056ZM533.12 206.168H537.536V210.008H533.248V223H528.256V210.008H525.6V206.168H528.256V205.4C528.256 203.437 528.832 201.88 529.984 200.728C531.157 199.576 532.8 199 534.912 199C535.658 199 536.362 199.085 537.024 199.256C537.706 199.405 538.272 199.629 538.72 199.928L537.408 203.544C536.832 203.139 536.16 202.936 535.392 202.936C533.877 202.936 533.12 203.768 533.12 205.432V206.168ZM547.996 223.256C546.183 223.256 544.551 222.883 543.1 222.136C541.671 221.368 540.551 220.312 539.74 218.968C538.929 217.624 538.524 216.099 538.524 214.392C538.524 212.685 538.929 211.16 539.74 209.816C540.551 208.472 541.671 207.427 543.1 206.68C544.551 205.912 546.183 205.528 547.996 205.528C549.809 205.528 551.431 205.912 552.86 206.68C554.289 207.427 555.409 208.472 556.22 209.816C557.031 211.16 557.436 212.685 557.436 214.392C557.436 216.099 557.031 217.624 556.22 218.968C555.409 220.312 554.289 221.368 552.86 222.136C551.431 222.883 549.809 223.256 547.996 223.256ZM547.996 219.16C549.276 219.16 550.321 218.733 551.132 217.88C551.964 217.005 552.38 215.843 552.38 214.392C552.38 212.941 551.964 211.789 551.132 210.936C550.321 210.061 549.276 209.624 547.996 209.624C546.716 209.624 545.66 210.061 544.828 210.936C543.996 211.789 543.58 212.941 543.58 214.392C543.58 215.843 543.996 217.005 544.828 217.88C545.66 218.733 546.716 219.16 547.996 219.16ZM565.541 208.056C566.138 207.224 566.938 206.595 567.941 206.168C568.965 205.741 570.138 205.528 571.461 205.528V210.136C570.906 210.093 570.533 210.072 570.341 210.072C568.911 210.072 567.791 210.477 566.981 211.288C566.17 212.077 565.765 213.272 565.765 214.872V223H560.773V205.784H565.541V208.056ZM596.477 205.528C598.632 205.528 600.338 206.168 601.597 207.448C602.877 208.707 603.517 210.605 603.517 213.144V223H598.525V213.912C598.525 212.547 598.237 211.533 597.661 210.872C597.106 210.189 596.306 209.848 595.261 209.848C594.088 209.848 593.16 210.232 592.477 211C591.794 211.747 591.453 212.867 591.453 214.36V223H586.461V213.912C586.461 211.203 585.373 209.848 583.197 209.848C582.045 209.848 581.128 210.232 580.445 211C579.762 211.747 579.421 212.867 579.421 214.36V223H574.429V205.784H579.197V207.768C579.837 207.043 580.616 206.488 581.533 206.104C582.472 205.72 583.496 205.528 584.605 205.528C585.821 205.528 586.92 205.773 587.901 206.264C588.882 206.733 589.672 207.427 590.269 208.344C590.973 207.448 591.858 206.755 592.925 206.264C594.013 205.773 595.197 205.528 596.477 205.528ZM614.936 205.528C617.602 205.528 619.65 206.168 621.08 207.448C622.509 208.707 623.224 210.616 623.224 213.176V223H618.552V220.856C617.613 222.456 615.864 223.256 613.304 223.256C611.981 223.256 610.829 223.032 609.848 222.584C608.888 222.136 608.152 221.517 607.64 220.728C607.128 219.939 606.872 219.043 606.872 218.04C606.872 216.44 607.469 215.181 608.664 214.264C609.88 213.347 611.746 212.888 614.264 212.888H618.232C618.232 211.8 617.901 210.968 617.24 210.392C616.578 209.795 615.586 209.496 614.264 209.496C613.346 209.496 612.44 209.645 611.544 209.944C610.669 210.221 609.922 210.605 609.304 211.096L607.512 207.608C608.45 206.947 609.57 206.435 610.872 206.072C612.194 205.709 613.549 205.528 614.936 205.528ZM614.552 219.896C615.405 219.896 616.162 219.704 616.824 219.32C617.485 218.915 617.954 218.328 618.232 217.56V215.8H614.808C612.76 215.8 611.736 216.472 611.736 217.816C611.736 218.456 611.981 218.968 612.472 219.352C612.984 219.715 613.677 219.896 614.552 219.896ZM638.206 205.528C640.339 205.528 642.056 206.168 643.358 207.448C644.68 208.728 645.342 210.627 645.342 213.144V223H640.35V213.912C640.35 212.547 640.051 211.533 639.454 210.872C638.856 210.189 637.992 209.848 636.862 209.848C635.603 209.848 634.6 210.243 633.854 211.032C633.107 211.8 632.734 212.952 632.734 214.488V223H627.742V205.784H632.51V207.8C633.171 207.075 633.992 206.52 634.974 206.136C635.955 205.731 637.032 205.528 638.206 205.528ZM660.971 222.168C660.48 222.531 659.872 222.808 659.147 223C658.443 223.171 657.696 223.256 656.907 223.256C654.859 223.256 653.269 222.733 652.139 221.688C651.029 220.643 650.475 219.107 650.475 217.08V210.008H647.819V206.168H650.475V201.976H655.467V206.168H659.755V210.008H655.467V217.016C655.467 217.741 655.648 218.307 656.01 218.712C656.395 219.096 656.928 219.288 657.611 219.288C658.4 219.288 659.072 219.075 659.627 218.648L660.971 222.168Z"/><path fill="#592340" fill-rule="evenodd" d="M187.178 50C164.016 50 154 60.4712 154 83.4574V427.457C154 450.443 164.016 460.496 187.178 460.496H320.41C342.769 460.496 354 449.634 354 427.457C354 427.457 354 106.443 354 83.4574C354 60.4712 343.34 50 320.178 50H187.178Z" clip-rule="evenodd"/><path fill="#FC9EC2" fill-rule="evenodd" d="M203 63.5C203.5 68 206.632 73 214.5 73H293C300.868 73 303.5 68 304 63.5C304.282 60.9661 305.291 59 309 59L323.527 59.086C336.598 59.086 345 66.9649 345 80V429.5C345 442.535 336.598 450.468 323.527 450.468H184.055C170.984 450.468 163 442.585 163 429.55V80C163 66.9649 170.929 59 184 59H199C202.709 59 202.779 61.5122 203 63.5Z" clip-rule="evenodd"/><path fill="#fff" d="M163 149.75C163 143.464 163 140.321 163.927 137.808C165.446 133.691 168.691 130.446 172.808 128.927C175.321 128 178.464 128 184.75 128H323.25C329.536 128 332.679 128 335.192 128.927C339.309 130.446 342.554 133.691 344.073 137.808C345 140.321 345 143.464 345 149.75V422C345 430.381 345 434.572 343.764 437.922C341.739 443.412 337.412 447.739 331.922 449.764C328.572 451 324.381 451 316 451H192C183.619 451 179.428 451 176.078 449.764C170.588 447.739 166.261 443.412 164.236 437.922C163 434.572 163 430.381 163 422V149.75Z"/><path fill="#592340" d="M188.424 171.368H186.376V177H178.824V154.6H189.608C191.677 154.6 193.48 154.941 195.016 155.624C196.552 156.307 197.736 157.288 198.568 158.568C199.4 159.848 199.816 161.341 199.816 163.048C199.816 164.648 199.453 166.045 198.728 167.24C198.003 168.435 196.957 169.384 195.592 170.088L200.296 177H192.232L188.424 171.368ZM192.2 163.048C192.2 162.216 191.944 161.576 191.432 161.128C190.92 160.659 190.152 160.424 189.128 160.424H186.376V165.672H189.128C190.152 165.672 190.92 165.448 191.432 165C191.944 164.531 192.2 163.88 192.2 163.048ZM221.068 168.232C221.068 168.339 221.036 168.904 220.972 169.928H208.812C209.068 170.589 209.494 171.101 210.092 171.464C210.689 171.805 211.436 171.976 212.332 171.976C213.1 171.976 213.74 171.88 214.252 171.688C214.785 171.496 215.361 171.165 215.98 170.696L219.756 174.504C218.049 176.381 215.5 177.32 212.108 177.32C209.996 177.32 208.14 176.936 206.54 176.168C204.94 175.379 203.702 174.291 202.828 172.904C201.953 171.517 201.516 169.96 201.516 168.232C201.516 166.483 201.942 164.925 202.796 163.56C203.67 162.173 204.854 161.096 206.348 160.328C207.862 159.56 209.558 159.176 211.436 159.176C213.206 159.176 214.817 159.528 216.268 160.232C217.74 160.936 218.902 161.971 219.756 163.336C220.63 164.701 221.068 166.333 221.068 168.232ZM211.5 164.104C210.753 164.104 210.134 164.307 209.644 164.712C209.153 165.117 208.833 165.693 208.684 166.44H214.316C214.166 165.715 213.846 165.149 213.356 164.744C212.865 164.317 212.246 164.104 211.5 164.104ZM230.721 159.176C233.793 159.176 236.14 159.869 237.761 161.256C239.383 162.621 240.193 164.733 240.193 167.592V177H233.473V174.696C232.641 176.445 230.988 177.32 228.513 177.32C227.127 177.32 225.943 177.085 224.961 176.616C224.001 176.125 223.265 175.475 222.753 174.664C222.263 173.832 222.017 172.904 222.017 171.88C222.017 170.152 222.679 168.84 224.001 167.944C225.324 167.048 227.329 166.6 230.017 166.6H232.929C232.695 165.235 231.596 164.552 229.633 164.552C228.844 164.552 228.044 164.68 227.233 164.936C226.423 165.171 225.729 165.501 225.153 165.928L222.849 161.16C223.852 160.541 225.057 160.061 226.465 159.72C227.895 159.357 229.313 159.176 230.721 159.176ZM230.689 172.968C231.201 172.968 231.66 172.829 232.065 172.552C232.471 172.275 232.769 171.859 232.961 171.304V170.088H231.169C229.697 170.088 228.961 170.579 228.961 171.56C228.961 171.965 229.111 172.307 229.409 172.584C229.729 172.84 230.156 172.968 230.689 172.968ZM253.039 177.32C251.055 177.32 249.274 176.936 247.695 176.168C246.138 175.4 244.911 174.323 244.015 172.936C243.141 171.549 242.703 169.981 242.703 168.232C242.703 166.483 243.141 164.925 244.015 163.56C244.911 162.173 246.138 161.096 247.695 160.328C249.274 159.56 251.055 159.176 253.039 159.176C255.173 159.176 256.997 159.635 258.511 160.552C260.026 161.469 261.071 162.739 261.647 164.36L256.047 167.112C255.365 165.576 254.351 164.808 253.007 164.808C252.154 164.808 251.439 165.107 250.863 165.704C250.309 166.301 250.031 167.144 250.031 168.232C250.031 169.341 250.309 170.195 250.863 170.792C251.439 171.389 252.154 171.688 253.007 171.688C254.351 171.688 255.365 170.92 256.047 169.384L261.647 172.136C261.071 173.757 260.026 175.027 258.511 175.944C256.997 176.861 255.173 177.32 253.039 177.32ZM276.527 176.392C275.439 177.011 273.957 177.32 272.079 177.32C269.626 177.32 267.738 176.733 266.415 175.56C265.093 174.365 264.431 172.584 264.431 170.216V165.736H262.031V160.456H264.431V155.56H271.663V160.456H275.247V165.736H271.663V170.152C271.663 170.685 271.802 171.101 272.079 171.4C272.357 171.699 272.719 171.848 273.167 171.848C273.786 171.848 274.33 171.688 274.799 171.368L276.527 176.392ZM187.176 223.512C185.32 223.512 183.507 223.309 181.736 222.904C179.987 222.477 178.547 221.912 177.416 221.208L179.848 215.704C180.915 216.323 182.109 216.824 183.432 217.208C184.755 217.571 186.024 217.752 187.24 217.752C188.285 217.752 189.032 217.656 189.48 217.464C189.928 217.251 190.152 216.941 190.152 216.536C190.152 216.067 189.853 215.715 189.256 215.48C188.68 215.245 187.72 214.989 186.376 214.712C184.648 214.349 183.208 213.965 182.056 213.56C180.904 213.133 179.901 212.451 179.048 211.512C178.195 210.552 177.768 209.261 177.768 207.64C177.768 206.232 178.163 204.952 178.952 203.8C179.741 202.648 180.915 201.741 182.472 201.08C184.051 200.419 185.96 200.088 188.2 200.088C189.736 200.088 191.24 200.259 192.712 200.6C194.205 200.92 195.517 201.4 196.648 202.04L194.376 207.512C192.179 206.403 190.099 205.848 188.136 205.848C186.195 205.848 185.224 206.317 185.224 207.256C185.224 207.704 185.512 208.045 186.088 208.28C186.664 208.493 187.613 208.728 188.936 208.984C190.643 209.304 192.083 209.677 193.256 210.104C194.429 210.509 195.443 211.181 196.296 212.12C197.171 213.059 197.608 214.339 197.608 215.96C197.608 217.368 197.213 218.648 196.424 219.8C195.635 220.931 194.451 221.837 192.872 222.52C191.315 223.181 189.416 223.512 187.176 223.512ZM211.311 205.176C212.847 205.176 214.255 205.549 215.535 206.296C216.837 207.021 217.861 208.077 218.607 209.464C219.375 210.851 219.759 212.451 219.759 214.264C219.759 216.077 219.375 217.677 218.607 219.064C217.861 220.429 216.837 221.485 215.535 222.232C214.255 222.957 212.847 223.32 211.311 223.32C209.37 223.32 207.887 222.819 206.863 221.816V229.208H199.631V205.496H206.511V206.936C207.557 205.763 209.157 205.176 211.311 205.176ZM209.583 217.688C210.415 217.688 211.098 217.389 211.631 216.792C212.165 216.195 212.431 215.352 212.431 214.264C212.431 213.176 212.165 212.333 211.631 211.736C211.098 211.117 210.415 210.808 209.583 210.808C208.751 210.808 208.069 211.117 207.535 211.736C207.002 212.333 206.735 213.176 206.735 214.264C206.735 215.352 207.002 216.195 207.535 216.792C208.069 217.389 208.751 217.688 209.583 217.688ZM228.918 207.384C230.198 205.912 232.086 205.176 234.582 205.176V211.576C234.006 211.491 233.472 211.448 232.982 211.448C230.507 211.448 229.27 212.707 229.27 215.224V223H222.038V205.496H228.918V207.384ZM236.631 205.496H243.863V223H236.631V205.496ZM240.247 204.088C238.946 204.088 237.89 203.747 237.079 203.064C236.29 202.36 235.895 201.475 235.895 200.408C235.895 199.341 236.29 198.467 237.079 197.784C237.89 197.08 238.946 196.728 240.247 196.728C241.57 196.728 242.626 197.059 243.415 197.72C244.205 198.381 244.599 199.235 244.599 200.28C244.599 201.389 244.205 202.307 243.415 203.032C242.626 203.736 241.57 204.088 240.247 204.088ZM259.229 205.176C261.383 205.176 263.111 205.827 264.413 207.128C265.735 208.429 266.397 210.392 266.397 213.016V223H259.165V214.264C259.165 212.259 258.45 211.256 257.021 211.256C256.21 211.256 255.549 211.544 255.037 212.12C254.546 212.675 254.301 213.56 254.301 214.776V223H247.069V205.496H253.949V207.224C254.631 206.541 255.421 206.029 256.317 205.688C257.213 205.347 258.183 205.176 259.229 205.176ZM289.402 205.496V219.512C289.402 222.84 288.474 225.336 286.618 227C284.783 228.685 282.159 229.528 278.746 229.528C276.997 229.528 275.365 229.336 273.85 228.952C272.335 228.589 271.045 228.056 269.978 227.352L272.41 222.424C273.093 222.936 273.957 223.352 275.002 223.672C276.047 223.992 277.05 224.152 278.01 224.152C279.461 224.152 280.517 223.843 281.178 223.224C281.839 222.605 282.17 221.699 282.17 220.504V220.184C281.082 221.421 279.471 222.04 277.338 222.04C275.845 222.04 274.447 221.699 273.146 221.016C271.866 220.312 270.842 219.32 270.074 218.04C269.306 216.739 268.922 215.256 268.922 213.592C268.922 211.928 269.306 210.456 270.074 209.176C270.842 207.896 271.866 206.915 273.146 206.232C274.447 205.528 275.845 205.176 277.338 205.176C279.727 205.176 281.455 205.944 282.522 207.48V205.496H289.402ZM279.258 216.408C280.111 216.408 280.815 216.152 281.37 215.64C281.946 215.107 282.234 214.424 282.234 213.592C282.234 212.76 281.946 212.088 281.37 211.576C280.815 211.064 280.111 210.808 279.258 210.808C278.383 210.808 277.658 211.064 277.082 211.576C276.527 212.088 276.25 212.76 276.25 213.592C276.25 214.424 276.538 215.107 277.114 215.64C277.69 216.152 278.405 216.408 279.258 216.408ZM196.744 257.288C198.067 257.779 199.091 258.493 199.816 259.432C200.541 260.371 200.904 261.501 200.904 262.824C200.904 264.787 200.093 266.312 198.472 267.4C196.851 268.467 194.504 269 191.432 269H178.824V246.6H190.792C193.779 246.6 196.029 247.133 197.544 248.2C199.08 249.267 199.848 250.685 199.848 252.456C199.848 253.501 199.581 254.44 199.048 255.272C198.536 256.104 197.768 256.776 196.744 257.288ZM186.248 251.88V255.208H189.768C191.411 255.208 192.232 254.653 192.232 253.544C192.232 252.435 191.411 251.88 189.768 251.88H186.248ZM190.792 263.72C192.456 263.72 193.288 263.133 193.288 261.96C193.288 260.787 192.456 260.2 190.792 260.2H186.248V263.72H190.792ZM212.598 269.32C210.657 269.32 208.907 268.936 207.35 268.168C205.814 267.379 204.609 266.301 203.734 264.936C202.859 263.549 202.422 261.981 202.422 260.232C202.422 258.483 202.859 256.925 203.734 255.56C204.609 254.173 205.814 253.096 207.35 252.328C208.907 251.56 210.657 251.176 212.598 251.176C214.561 251.176 216.31 251.56 217.846 252.328C219.403 253.096 220.609 254.173 221.462 255.56C222.337 256.925 222.774 258.483 222.774 260.232C222.774 261.981 222.337 263.549 221.462 264.936C220.609 266.301 219.403 267.379 217.846 268.168C216.31 268.936 214.561 269.32 212.598 269.32ZM212.598 263.688C213.43 263.688 214.113 263.389 214.646 262.792C215.179 262.173 215.446 261.32 215.446 260.232C215.446 259.144 215.179 258.301 214.646 257.704C214.113 257.107 213.43 256.808 212.598 256.808C211.766 256.808 211.083 257.107 210.55 257.704C210.017 258.301 209.75 259.144 209.75 260.232C209.75 261.32 210.017 262.173 210.55 262.792C211.083 263.389 211.766 263.688 212.598 263.688ZM237.934 268.392C236.846 269.011 235.363 269.32 233.486 269.32C231.032 269.32 229.144 268.733 227.822 267.56C226.499 266.365 225.838 264.584 225.838 262.216V257.736H223.438V252.456H225.838V247.56H233.07V252.456H236.654V257.736H233.07V262.152C233.07 262.685 233.208 263.101 233.486 263.4C233.763 263.699 234.126 263.848 234.574 263.848C235.192 263.848 235.736 263.688 236.206 263.368L237.934 268.392ZM252.34 268.392C251.252 269.011 249.769 269.32 247.892 269.32C245.438 269.32 243.55 268.733 242.228 267.56C240.905 266.365 240.244 264.584 240.244 262.216V257.736H237.844V252.456H240.244V247.56H247.476V252.456H251.06V257.736H247.476V262.152C247.476 262.685 247.614 263.101 247.892 263.4C248.169 263.699 248.532 263.848 248.98 263.848C249.598 263.848 250.142 263.688 250.612 263.368L252.34 268.392ZM262.942 269.32C261 269.32 259.251 268.936 257.694 268.168C256.158 267.379 254.952 266.301 254.078 264.936C253.203 263.549 252.766 261.981 252.766 260.232C252.766 258.483 253.203 256.925 254.078 255.56C254.952 254.173 256.158 253.096 257.694 252.328C259.251 251.56 261 251.176 262.942 251.176C264.904 251.176 266.654 251.56 268.19 252.328C269.747 253.096 270.952 254.173 271.806 255.56C272.68 256.925 273.118 258.483 273.118 260.232C273.118 261.981 272.68 263.549 271.806 264.936C270.952 266.301 269.747 267.379 268.19 268.168C266.654 268.936 264.904 269.32 262.942 269.32ZM262.942 263.688C263.774 263.688 264.456 263.389 264.99 262.792C265.523 262.173 265.79 261.32 265.79 260.232C265.79 259.144 265.523 258.301 264.99 257.704C264.456 257.107 263.774 256.808 262.942 256.808C262.11 256.808 261.427 257.107 260.894 257.704C260.36 258.301 260.094 259.144 260.094 260.232C260.094 261.32 260.36 262.173 260.894 262.792C261.427 263.389 262.11 263.688 262.942 263.688ZM298.549 251.176C300.661 251.176 302.347 251.827 303.605 253.128C304.885 254.429 305.525 256.392 305.525 259.016V269H298.293V260.264C298.293 258.259 297.643 257.256 296.341 257.256C295.659 257.256 295.104 257.512 294.677 258.024C294.272 258.536 294.069 259.347 294.069 260.456V269H286.837V260.264C286.837 258.259 286.187 257.256 284.885 257.256C284.203 257.256 283.648 257.512 283.221 258.024C282.816 258.536 282.613 259.347 282.613 260.456V269H275.381V251.496H282.261V253.128C283.563 251.827 285.216 251.176 287.221 251.176C288.395 251.176 289.451 251.4 290.389 251.848C291.328 252.275 292.096 252.936 292.693 253.832C293.397 252.979 294.251 252.328 295.253 251.88C296.256 251.411 297.355 251.176 298.549 251.176ZM187.176 315.512C185.32 315.512 183.507 315.309 181.736 314.904C179.987 314.477 178.547 313.912 177.416 313.208L179.848 307.704C180.915 308.323 182.109 308.824 183.432 309.208C184.755 309.571 186.024 309.752 187.24 309.752C188.285 309.752 189.032 309.656 189.48 309.464C189.928 309.251 190.152 308.941 190.152 308.536C190.152 308.067 189.853 307.715 189.256 307.48C188.68 307.245 187.72 306.989 186.376 306.712C184.648 306.349 183.208 305.965 182.056 305.56C180.904 305.133 179.901 304.451 179.048 303.512C178.195 302.552 177.768 301.261 177.768 299.64C177.768 298.232 178.163 296.952 178.952 295.8C179.741 294.648 180.915 293.741 182.472 293.08C184.051 292.419 185.96 292.088 188.2 292.088C189.736 292.088 191.24 292.259 192.712 292.6C194.205 292.92 195.517 293.4 196.648 294.04L194.376 299.512C192.179 298.403 190.099 297.848 188.136 297.848C186.195 297.848 185.224 298.317 185.224 299.256C185.224 299.704 185.512 300.045 186.088 300.28C186.664 300.493 187.613 300.728 188.936 300.984C190.643 301.304 192.083 301.677 193.256 302.104C194.429 302.509 195.443 303.181 196.296 304.12C197.171 305.059 197.608 306.339 197.608 307.96C197.608 309.368 197.213 310.648 196.424 311.8C195.635 312.931 194.451 313.837 192.872 314.52C191.315 315.181 189.416 315.512 187.176 315.512ZM211.791 297.176C213.946 297.176 215.674 297.827 216.975 299.128C218.298 300.429 218.959 302.392 218.959 305.016V315H211.727V306.264C211.727 304.259 211.013 303.256 209.583 303.256C208.773 303.256 208.111 303.544 207.599 304.12C207.109 304.675 206.863 305.56 206.863 306.776V315H199.631V291.256H206.863V298.904C208.207 297.752 209.85 297.176 211.791 297.176ZM241.037 306.232C241.037 306.339 241.005 306.904 240.941 307.928H228.781C229.037 308.589 229.463 309.101 230.061 309.464C230.658 309.805 231.405 309.976 232.301 309.976C233.069 309.976 233.709 309.88 234.221 309.688C234.754 309.496 235.33 309.165 235.949 308.696L239.725 312.504C238.018 314.381 235.469 315.32 232.077 315.32C229.965 315.32 228.109 314.936 226.509 314.168C224.909 313.379 223.671 312.291 222.797 310.904C221.922 309.517 221.485 307.96 221.485 306.232C221.485 304.483 221.911 302.925 222.765 301.56C223.639 300.173 224.823 299.096 226.317 298.328C227.831 297.56 229.527 297.176 231.405 297.176C233.175 297.176 234.786 297.528 236.237 298.232C237.709 298.936 238.871 299.971 239.725 301.336C240.599 302.701 241.037 304.333 241.037 306.232ZM231.469 302.104C230.722 302.104 230.103 302.307 229.613 302.712C229.122 303.117 228.802 303.693 228.653 304.44H234.285C234.135 303.715 233.815 303.149 233.325 302.744C232.834 302.317 232.215 302.104 231.469 302.104ZM261.943 306.232C261.943 306.339 261.911 306.904 261.847 307.928H249.687C249.943 308.589 250.369 309.101 250.967 309.464C251.564 309.805 252.311 309.976 253.207 309.976C253.975 309.976 254.615 309.88 255.127 309.688C255.66 309.496 256.236 309.165 256.855 308.696L260.631 312.504C258.924 314.381 256.375 315.32 252.983 315.32C250.871 315.32 249.015 314.936 247.415 314.168C245.815 313.379 244.577 312.291 243.703 310.904C242.828 309.517 242.391 307.96 242.391 306.232C242.391 304.483 242.817 302.925 243.671 301.56C244.545 300.173 245.729 299.096 247.223 298.328C248.737 297.56 250.433 297.176 252.311 297.176C254.081 297.176 255.692 297.528 257.143 298.232C258.615 298.936 259.777 299.971 260.631 301.336C261.505 302.701 261.943 304.333 261.943 306.232ZM252.375 302.104C251.628 302.104 251.009 302.307 250.519 302.712C250.028 303.117 249.708 303.693 249.559 304.44H255.191C255.041 303.715 254.721 303.149 254.231 302.744C253.74 302.317 253.121 302.104 252.375 302.104ZM277.121 314.392C276.033 315.011 274.55 315.32 272.673 315.32C270.22 315.32 268.332 314.733 267.009 313.56C265.686 312.365 265.025 310.584 265.025 308.216V303.736H262.625V298.456H265.025V293.56H272.257V298.456H275.841V303.736H272.257V308.152C272.257 308.685 272.396 309.101 272.673 309.4C272.95 309.699 273.313 309.848 273.761 309.848C274.38 309.848 274.924 309.688 275.393 309.368L277.121 314.392Z"/><rect width="22" height="2" x="243" y="135" fill="#58223F" fill-opacity=".5" rx="1"/><rect width="1280" height="214" x="-152" y="336" fill="#fff"/><rect width="1281" height="215" x="-152.5" y="335.5" stroke="#592340" stroke-opacity=".4"/></g><defs><linearGradient id="paint0_linear" x1="567.5" x2="582.845" y1="-27.796" y2="344.998" gradientUnits="userSpaceOnUse"><stop stop-color="#F1C7A7"/><stop offset="1" stop-color="#FF8FCB"/></linearGradient><clipPath id="clip0"><rect width="1280" height="550" fill="#fff" transform="translate(-152)"/></clipPath></defs></svg>